<svg xmlns="http://www.w3.org/2000/svg" version="1.1" xmlns:xlink="http://www.w3.org/1999/xlink" xmlns:svgjs="http://svgjs.dev/svgjs" viewBox="0 0 800 800" opacity="1"><defs><linearGradient x1="50%" y1="0%" x2="50%" y2="100%" id="ccchaos-grad"><stop stop-color="	hsl(146, 98%, 82%)" stop-opacity="1" offset="0%"></stop><stop stop-color="hsl(250, 100%, 60%)" stop-opacity="1" offset="100%"></stop></linearGradient></defs><g stroke-width="1" stroke="url(#ccchaos-grad)" fill="none" stroke-linecap="round"><path d="M413.87 117.08Q426.92 122.8 438.36 129.14 448.51 136.29 457.88 144.38 467.1 153.46 476.87 163.54 487.84 174.57 500.57 186.4 515.42 198.85 532.51 211.67 551.68 224.59 572.52 237.33 594.38 249.59 616.46 261.11 637.9 271.67 657.86 281.12 660.1 298.85 652.32 316.59 638.03 334.32 623.73 352.05 615.91 369.79 618.1 387.52 629.32 405.25 644.48 422.99 656.69 440.72 660.43 458.45 653.98 476.19 640.28 493.92 625.55 511.66 616.46 529.39 617.14 547.13 627.29 564.86 619.79 572.85 612.35 579.05 604.1 583.58 594.3 586.67 582.44 588.67 568.27 589.99 551.81 591.09 533.37 592.48 513.46 594.63 492.75 597.99 471.96 602.93 451.79 609.71 432.82 618.5 415.45 629.31 399.89 642.03 386.1 656.42 371.14 655.16 357.8 654.49 345.79 653.88 334.66 652.81 323.92 650.81 313.04 647.45 301.56 642.43 289.12 635.54 275.53 626.71 260.72 615.98 244.8 603.54 228.01 589.66 210.68 574.72 193.16 559.16 175.81 543.43 158.91 528.01 156 511.03 155.8 494.04 158.41 477.06 162.64 460.07 166.57 443.08 168.42 426.1 167.35 409.11 163.85 392.13 159.49 375.14 156.27 358.16 155.64 341.18 157.89 324.19 162 307.21 166.1 290.22 168.33 273.24 167.69 256.25 181.53 252.32 194.59 248.35 206.99 244.05 219.02 239.14 231.01 233.42 243.35 226.71 256.43 218.92 270.56 210.04 285.93 200.12 302.62 189.28 320.49 177.7 339.27 165.61 358.52 153.25 377.74 140.88 396.36 128.75 413.87 117.08 413.87 117.08 413.87 117.08" stroke-dasharray="3 2" transform="rotate(0, 400, 400)" opacity="1.00"></path><path d="M411.2 126.7Q422.2 132.15 432.07 138.19 441.27 144.99 450.35 152.65 459.9 161.27 470.52 170.84 482.68 181.31 496.72 192.59 512.79 204.51 530.79 216.86 550.4 229.39 571.1 241.85 592.23 253.98 613.04 265.52 632.77 276.25 650.77 285.99 650.26 303.09 640.97 320.18 626.82 337.28 613.8 354.37 607.42 371.47 610.39 388.56 621.43 405.66 635.89 422.76 647.64 439.85 651.72 456.95 646.39 474.04 633.91 491.14 619.56 508.24 609.42 525.33 607.77 542.43 615.32 559.53 607.49 566.29 600.2 571.45 592.66 575.16 584.15 577.7 574.07 579.37 562.05 580.59 547.92 581.77 531.75 583.35 513.86 585.76 494.71 589.37 474.89 594.49 455.04 601.35 435.75 610.06 417.54 620.63 400.75 632.95 385.57 646.8 372.94 645.5 361.55 644.75 351.01 644.1 340.83 643.08 330.54 641.25 319.69 638.25 307.94 633.76 295.07 627.58 281.02 619.63 265.85 609.9 249.75 598.53 233.01 585.72 215.96 571.79 198.95 557.09 182.28 542.02 166.18 527.01 163.89 510.56 164.39 494.1 167.47 477.65 171.83 461.19 175.61 444.74 177.23 428.28 176 411.83 172.43 395.37 168.04 378.92 164.68 362.46 163.78 346.01 165.72 329.55 169.67 313.1 173.97 296.64 176.79 280.19 176.95 263.73 190.69 260.04 203.61 256.16 215.79 251.83 227.42 246.84 238.79 240.99 250.23 234.17 262.13 226.31 274.81 217.43 288.57 207.58 303.57 196.91 319.84 185.57 337.25 173.79 355.53 161.78 374.27 149.78 393 138.02 411.2 126.7 411.2 126.7 411.2 126.7" stroke-dasharray="1 1" transform="rotate(7.518518518518518, 400, 400)" opacity="0.96"></path><path d="M406.83 136.34Q416.37 141.52 425.36 147.26 434.29 153.7 443.68 160.96 454.03 169.11 465.76 178.16 479.18 188.09 494.41 198.81 511.4 210.17 529.91 222.02 549.51 234.12 569.64 246.26 589.67 258.19 608.93 269.67 626.82 280.49 642.84 290.47 639.85 306.91 629.43 323.36 615.7 339.81 604.05 356.25 599.07 372.7 602.71 389.14 613.54 405.59 627.31 422.04 638.59 438.48 642.95 454.93 638.67 471.37 627.44 487.82 613.67 504.27 602.78 520.71 599.06 537.16 603.97 553.61 588.3 562.89 573.36 568.6 564.69 570.05 554.51 571.24 542.53 572.53 528.64 574.33 512.96 576.99 495.74 580.84 477.43 586.12 458.52 593.02 439.57 601.63 421.09 611.95 403.55 623.85 387.24 637.16 376.56 635.83 366.63 635.02 357.02 634.33 347.27 633.35 336.98 631.68 325.82 628.99 313.59 624.98 300.21 619.47 285.72 612.35 270.28 603.58 254.14 593.25 237.61 581.51 221.01 568.61 204.64 554.83 188.76 540.54 173.52 526.08 171.95 510.16 173.15 494.24 176.64 478.31 181.05 462.39 184.65 446.47 186.03 430.55 184.63 414.63 181.01 398.71 176.6 382.79 173.12 366.87 171.95 350.95 173.55 335.03 177.29 319.11 181.69 303.19 185.03 287.27 185.99 271.35 199.66 267.8 212.51 263.93 224.57 259.54 235.96 254.42 246.89 248.44 257.65 241.51 268.56 233.6 279.99 224.73 292.23 214.98 305.54 204.49 320.06 193.41 335.81 181.94 352.67 170.29 370.38 158.67 388.58 147.29 406.83 136.34 406.83 136.34 406.83 136.34" stroke-dasharray="3 1" transform="rotate(15.037037037037036, 400, 400)" opacity="0.93"></path><path d="M401.42 145.97Q410.18 150.88 418.97 156.32 428.24 162.42 438.4 169.28 449.81 176.97 462.74 185.51 477.3 194.89 493.45 205.04 510.97 215.85 529.54 227.16 548.68 238.8 567.85 250.56 586.47 262.22 604 273.57 619.97 284.41 634.07 294.55 628.93 310.33 617.8 326.12 604.73 341.91 594.5 357.69 590.83 373.48 595.06 389.27 605.64 405.06 618.73 420.84 629.54 436.63 634.14 452.42 630.84 468.21 620.86 483.99 607.82 499.78 596.49 515.57 591 531.36 593.34 547.15 576.83 554.75 562.2 559.45 554.54 560.75 545.84 561.96 535.72 563.41 523.97 565.43 510.5 568.34 495.43 572.4 478.99 577.82 461.56 584.74 443.58 593.23 425.5 603.28 407.8 614.77 390.85 627.54 381.56 626.18 372.5 625.31 363.25 624.59 353.45 623.63 342.81 622.1 331.12 619.68 318.32 616.12 304.43 611.23 289.6 604.87 274.05 597.01 258.05 587.68 241.91 577 225.92 565.15 210.32 552.35 195.31 538.91 181.01 525.13 180.22 509.75 182.07 494.36 185.91 478.98 190.31 463.6 193.69 448.22 194.8 432.84 193.25 417.46 189.59 402.08 185.17 386.7 181.59 371.32 180.16 355.94 181.4 340.55 184.86 325.17 189.28 309.79 193.04 294.41 194.78 279.03 208.37 275.54 221.2 271.63 233.22 267.12 244.5 261.86 255.17 255.74 265.45 248.71 275.63 240.76 286.01 231.93 296.93 222.31 308.66 212.01 321.44 201.2 335.38 190.06 350.51 178.78 366.73 167.55 383.81 156.56 401.42 145.97 401.42 145.97 401.42 145.97" stroke-dasharray="0 1" transform="rotate(22.555555555555554, 400, 400)" opacity="0.89"></path><path d="M395.79 155.6Q404.45 160.26 413.62 165.41 423.66 171.16 434.85 177.63 447.41 184.87 461.43 192.91 476.85 201.74 493.53 211.32 511.15 221.54 529.32 232.3 547.59 243.43 565.45 254.76 582.44 266.1 598.13 277.25 612.2 288.02 624.47 298.23 617.59 313.35 606.13 328.48 593.95 343.6 585.16 358.72 582.71 373.84 587.43 388.96 597.73 404.08 610.15 419.2 620.49 434.33 625.27 449.45 622.89 464.57 614.14 479.69 601.98 494.81 590.49 509.93 583.56 525.06 583.51 540.18 565.87 546.36 550.98 550.25 535.79 552.95 517.78 556.66 506.4 559.8 493.5 564.05 479.16 569.57 463.59 576.49 447.08 584.84 430.03 594.6 412.82 605.67 395.86 617.9 387.32 616.52 378.52 615.61 369.14 614.84 358.91 613.91 347.67 612.5 335.35 610.33 321.99 607.17 307.71 602.83 292.72 597.2 277.25 590.19 261.6 581.83 246.03 572.18 230.79 561.37 216.08 549.6 202.03 537.08 188.69 524.08 188.71 509.24 191.18 494.41 195.27 479.57 199.6 464.74 202.71 449.9 203.56 435.07 201.86 420.23 198.18 405.4 193.76 390.57 190.09 375.73 188.41 360.9 189.28 346.06 192.41 331.23 196.74 316.39 200.82 301.56 203.27 286.73 216.78 283.21 229.59 279.21 241.63 274.55 252.9 269.14 263.46 262.89 273.48 255.78 283.16 247.82 292.77 239.04 302.61 229.56 312.98 219.49 324.13 208.97 336.27 198.17 349.54 187.26 363.95 176.42 379.43 165.82 395.79 155.6 395.79 155.6 395.79 155.6" stroke-dasharray="2 2" transform="rotate(30.074074074074073, 400, 400)" opacity="0.86"></path><path d="M390.8 165.23Q399.92 169.64 409.88 174.49 420.93 179.92 433.2 185.99 446.77 192.79 461.59 200.33 477.51 208.62 494.26 217.62 511.51 227.26 528.87 237.44 545.91 248.04 562.23 258.9 577.45 269.85 591.27 280.72 603.52 291.34 614.12 301.54 605.93 315.99 594.5 330.44 583.38 344.89 576.02 359.35 574.7 373.8 579.83 388.25 589.81 402.7 601.56 417.15 611.43 431.6 616.36 446.06 614.81 460.51 607.27 474.96 596.08 489.41 584.71 503.86 576.68 518.31 574.49 532.77 564.04 535.8 555.03 538.06 540.15 541.03 526.19 543.71 518.68 545.54 510.27 548.02 500.72 551.38 489.85 555.8 477.62 561.4 464.1 568.29 449.45 576.48 433.92 585.94 417.82 596.58 401.49 608.27 393.07 606.88 384.02 605.92 374.12 605.12 363.24 604.2 351.31 602.9 338.4 600.95 324.61 598.15 310.12 594.33 295.18 589.35 280.03 583.15 264.93 575.7 250.11 567.05 235.76 557.28 222.02 546.53 208.97 534.99 196.62 522.86 197.44 508.58 200.45 494.29 204.71 480.01 208.9 465.73 211.72 451.45 212.3 437.17 210.45 422.89 206.76 408.61 202.36 394.32 198.62 380.04 196.7 365.76 197.19 351.48 199.95 337.2 204.11 322.92 208.39 308.64 211.46 294.36 224.84 290.76 237.62 286.62 249.7 281.8 261.02 276.23 271.6 269.87 281.52 262.69 290.93 254.73 300.04 246.05 309.1 236.73 318.38 226.9 328.15 216.68 338.65 206.23 350.08 195.72 362.57 185.28 383.48 170.15 390.8 165.23" stroke-dasharray="0 3" transform="rotate(37.59259259259259, 400, 400)" opacity="0.82"></path><path d="M387.21 174.87Q397.15 179.02 408.1 183.6 420.16 188.69 433.37 194.39 447.66 200.75 462.9 207.8 478.84 215.55 495.21 223.98 511.66 233.03 527.84 242.62 543.4 252.65 558 262.99 571.41 273.5 583.43 284.03 593.99 294.42 603.1 304.52 594.04 318.3 582.97 332.07 573.05 345.85 567.09 359.63 566.8 373.4 572.24 387.18 581.88 400.96 592.98 414.73 602.37 428.51 607.39 442.29 606.61 456.06 600.25 469.84 590.12 483.62 579.1 497.39 570.32 511.17 566.29 524.95 555.18 527.39 545.49 529.23 529.8 531.95 515.89 534.78 501.36 539.94 484.55 547.63 474.29 553.29 462.82 560.12 450.19 568.12 436.52 577.27 422.01 587.49 406.89 598.64 398.08 597.24 388.41 596.25 377.78 595.41 366.16 594.51 353.61 593.29 340.24 591.54 326.23 589.06 311.79 585.7 297.15 581.33 282.55 575.87 268.2 569.28 254.28 561.58 240.93 552.83 228.23 543.11 216.21 532.57 204.84 521.37 206.43 507.65 209.88 493.93 214.21 480.22 218.2 466.5 220.7 452.78 221.01 439.06 219.04 425.35 215.34 411.63 210.97 397.91 207.18 384.19 205.04 370.48 205.15 356.76 207.5 343.04 211.4 329.32 215.76 315.61 219.32 301.89 232.52 298.16 245.24 293.84 257.35 288.86 268.75 283.14 279.43 276.67 289.39 269.46 298.73 261.53 307.59 252.96 316.16 243.83 324.67 234.26 333.36 224.36 342.49 214.28 352.28 204.16 362.92 194.13 380.88 179.6 387.21 174.87" stroke-dasharray="0 1" transform="rotate(45.11111111111111, 400, 400)" opacity="0.79"></path><path d="M385.57 184.49Q396.46 188.41 408.36 192.71 421.25 197.48 435.07 202.8 449.68 208.73 464.87 215.3 480.38 222.52 495.93 230.38 511.22 238.84 525.94 247.83 539.84 257.27 552.68 267.06 564.31 277.08 574.64 287.2 583.69 297.29 591.54 307.2 582.04 320.3 571.62 333.4 562.98 346.5 558.37 359.6 558.99 372.7 564.67 385.8 573.95 398.9 584.4 412 593.32 425.1 598.39 438.2 598.29 451.3 593.06 464.4 584.04 477.5 573.58 490.6 564.4 503.7 558.88 516.8 547.21 518.77 536.87 520.32 520.13 522.95 505.76 526 492.38 531.56 477.82 539.56 469.24 545.25 459.67 551.99 449.03 559.79 437.35 568.61 424.71 578.39 411.25 589.01 401.71 587.61 391.24 586.59 379.84 585.73 367.58 584.83 354.58 583.68 341.01 582.1 327.05 579.91 312.93 576.96 298.85 573.14 285.01 568.37 271.58 562.58 258.69 555.79 246.41 548.01 234.79 539.3 223.8 529.78 213.38 519.56 215.66 506.41 219.46 493.27 223.77 480.12 227.5 466.98 229.66 453.83 229.7 440.69 227.61 427.54 223.92 414.4 219.61 401.26 215.78 388.11 213.43 374.97 213.18 361.82 215.08 348.68 218.64 335.54 222.95 322.39 226.87 309.25 239.82 305.35 252.41 300.85 264.5 295.69 275.98 289.84 286.78 283.29 296.88 276.06 306.3 268.2 315.12 259.77 323.48 250.85 331.54 241.56 339.51 232 347.62 222.3 356.08 212.59 365.11 202.97 380.23 189.03 385.57 184.49" stroke-dasharray="4 2" transform="rotate(52.629629629629626, 400, 400)" opacity="0.75"></path><path d="M386.12 194.13Q397.87 197.8 410.48 201.83 423.85 206.29 437.86 211.25 452.31 216.76 466.98 222.86 481.63 229.56 496 236.85 509.85 244.71 522.95 253.1 535.11 261.94 546.21 271.15 556.17 280.63 564.99 290.28 572.74 299.98 579.56 309.61 570.03 322.03 560.49 334.46 553.19 346.88 549.86 359.31 551.28 371.73 557.12 384.15 565.99 396.58 575.82 409 584.26 421.43 589.34 433.85 589.86 446.28 585.68 458.7 577.8 471.13 568.08 483.55 558.81 495.98 552.18 508.4 540.11 510.02 529.22 511.37 511.33 514.04 496.13 517.38 483.19 523.33 470.05 531.58 462.77 537.26 454.77 543.89 445.92 551.46 436.16 559.95 425.46 569.29 413.89 579.37 403.5 577.98 392.25 576.93 380.23 576.05 367.55 575.16 354.39 574.08 340.91 572.64 327.32 570.7 313.8 568.13 300.52 564.8 287.64 560.65 275.26 555.61 263.47 549.66 252.31 542.81 241.76 535.09 231.77 526.57 222.27 517.35 225.14 504.79 229.16 492.23 233.37 479.67 236.78 467.11 238.58 454.54 238.36 441.98 236.16 429.42 232.51 416.86 228.25 404.3 224.41 391.74 221.88 379.18 221.27 366.62 222.71 354.06 225.87 341.5 230 328.94 234.13 316.38 246.74 312.29 259.12 307.6 271.13 302.28 282.63 296.32 293.55 289.72 303.81 282.51 313.41 274.74 322.36 266.48 330.73 257.81 338.64 248.82 346.23 239.62 353.69 230.31 361.21 221 368.99 211.8 381.68 198.47 386.12 194.13" stroke-dasharray="3 3" transform="rotate(60.148148148148145, 400, 400)" opacity="0.72"></path><path d="M388.78 203.75Q401.09 207.2 414.02 210.96 427.42 215.11 441.13 219.72 454.96 224.82 468.69 230.46 482.13 236.65 495.05 243.39 507.3 250.66 518.7 258.43 529.17 266.65 538.63 275.25 547.1 284.17 554.62 293.29 561.31 302.54 567.32 311.81 558.12 323.56 549.64 335.31 543.69 347.06 541.54 358.81 543.65 370.56 549.57 382.31 558.03 394.07 567.23 405.82 575.21 417.57 580.26 429.32 581.3 441.07 578.12 452.82 571.39 464.58 562.54 476.33 553.47 488.08 546.12 499.83 533.81 501.22 522.52 502.47 512.29 503.73 503.07 505.14 487.64 509.21 474.09 514.87 461.6 524.11 448.47 535.82 441.07 543.16 432.97 551.3 424.1 560.19 414.42 569.75 403.27 568.37 391.45 567.3 379.08 566.4 366.32 565.51 353.33 564.48 340.29 563.17 327.36 561.46 314.69 559.21 302.41 556.33 290.62 552.74 279.39 548.37 268.75 543.21 258.7 537.23 249.19 530.46 240.16 522.93 231.51 514.71 234.85 502.74 238.96 490.77 242.97 478.81 246.02 466.84 247.47 454.87 247 442.9 244.71 430.93 241.09 418.96 236.91 407 233.08 395.03 230.39 383.06 229.44 371.09 230.41 359.12 233.11 347.16 236.96 335.19 241.13 323.22 253.32 318.93 265.39 314.06 277.22 308.6 288.67 302.56 299.64 295.94 310.06 288.79 319.85 281.15 329.02 273.09 337.57 264.69 345.55 256.02 353.07 247.19 360.25 238.28 367.23 229.39 374.19 220.62 385.05 207.9 388.78 203.75" stroke-dasharray="1 4" transform="rotate(67.66666666666666, 400, 400)" opacity="0.68"></path><path d="M393.15 213.39Q405.59 216.6 418.36 220.11 431.31 223.96 444.27 228.22 457.07 232.93 469.54 238.12 481.5 243.81 492.83 250 503.41 256.69 513.16 263.85 522.03 271.45 530.04 279.43 537.22 287.74 543.68 296.3 549.53 305.03 554.96 313.86 546.41 324.94 539.12 336.02 534.5 347.1 533.42 358.18 536.1 369.26 542.03 380.34 550.06 391.42 558.65 402.51 566.16 413.59 571.14 424.67 572.64 435.75 570.37 446.83 564.76 457.91 556.9 468.99 548.28 480.08 540.57 491.16 528.23 492.41 516.71 493.64 506.08 494.97 496.37 496.52 479.93 500.95 465.61 506.95 453.34 516.26 441.26 527.79 434.89 534.86 428.09 542.64 420.74 551.08 412.75 560.11 401.12 558.75 389.07 557.67 376.73 556.75 364.26 555.87 351.81 554.89 339.51 553.69 327.5 552.16 315.89 550.2 304.76 547.72 294.15 544.63 284.11 540.88 274.61 536.44 265.63 531.28 257.1 525.39 248.95 518.82 241.09 511.58 244.75 500.21 248.84 488.85 252.57 477.48 255.23 466.12 256.31 454.75 255.6 443.39 253.23 432.02 249.67 420.66 245.59 409.29 241.78 397.93 238.97 386.57 237.69 375.2 238.2 363.84 240.4 352.47 243.86 341.11 247.92 329.75 259.59 325.26 271.26 320.23 282.79 314.67 294.08 308.57 305.02 301.98 315.51 294.92 325.49 287.44 334.89 279.61 343.69 271.5 351.91 263.18 359.59 254.73 366.78 246.24 373.6 237.78 380.18 229.44 389.89 217.34 393.15 213.39" stroke-dasharray="2 2" transform="rotate(75.18518518518518, 400, 400)" opacity="0.65"></path><path d="M398.56 223.02Q410.64 226.01 422.78 229.26 434.83 232.82 446.66 236.75 458.13 241.07 469.1 245.83 479.48 251.03 489.18 256.7 498.15 262.81 506.36 269.37 513.82 276.34 520.59 283.69 526.72 291.37 532.35 299.33 537.6 307.5 542.63 315.82 534.98 326.23 528.95 336.65 525.6 347.06 525.48 357.48 528.63 367.89 534.49 378.31 542.07 388.72 550.07 399.14 557.11 409.56 561.99 419.97 563.86 430.39 562.42 440.8 557.9 451.22 551.09 461.64 543.14 472.05 535.42 482.47 523.24 483.68 511.68 484.95 500.84 486.4 490.77 488.1 473.37 492.89 458.12 499.18 445.53 508.49 433.75 519.78 427.97 526.58 422.03 533.99 415.79 541.98 409.14 550.48 397.45 549.15 385.58 548.07 373.67 547.14 361.86 546.25 350.26 545.31 338.98 544.21 328.1 542.85 317.68 541.13 307.77 538.99 298.38 536.35 289.5 533.15 281.1 529.36 273.13 524.95 265.5 519.89 256.48 505.69 258.76 486.42 262.14 475.67 264.39 464.91 265.1 454.16 264.17 443.41 261.75 432.66 258.25 421.91 254.28 411.16 250.52 400.41 247.6 389.66 246.04 378.91 246.1 368.15 247.77 357.4 250.76 346.65 254.56 335.9 265.63 331.24 276.77 326.08 287.9 320.45 298.9 314.35 309.69 307.81 320.15 300.88 330.21 293.61 339.8 286.04 348.86 278.24 357.38 270.29 365.34 262.24 372.77 254.17 379.72 246.14 386.27 238.24 395.54 226.76 398.56 223.02" stroke-dasharray="3 3" transform="rotate(82.7037037037037, 400, 400)" opacity="0.61"></path><path d="M404.19 232.65Q415.45 235.42 426.55 238.43 437.36 241.71 447.79 245.31 457.74 249.27 467.14 253.6 475.93 258.34 484.07 263.48 491.57 269.04 498.44 275 504.72 281.35 510.48 288.06 515.81 295.1 520.84 302.43 524.8 318.75 519.18 337.26 517 347.01 517.71 356.77 521.21 366.52 526.95 376.28 534.07 386.04 541.49 395.79 548.06 405.55 552.8 415.31 554.99 425.06 554.28 434.82 550.79 444.57 545.05 454.33 537.93 464.09 530.52 473.85 518.69 475.08 507.3 476.45 496.45 478.04 486.2 479.91 476.62 482.14 467.72 484.79 452.2 491.83 438.41 500.52 426.65 512.08 415.45 525.33 409.88 532.87 404.14 540.85 392.82 539.54 381.57 538.46 370.48 537.53 359.65 536.65 349.16 535.74 339.08 534.72 329.45 533.49 320.29 532 303.63 527.68 288.25 521.99 274.45 513.69 261.14 503.73 264.99 493.6 268.69 483.47 271.67 473.34 273.48 463.21 273.84 453.08 272.71 442.95 270.25 432.82 266.84 422.69 262.99 412.56 259.29 402.43 256.31 392.3 254.5 382.17 254.13 372.05 255.25 361.92 257.71 351.79 261.12 341.66 271.5 336.85 282.03 331.61 292.63 325.95 303.21 319.89 313.7 313.46 323.99 306.7 334.01 299.66 343.67 292.39 352.92 284.93 361.7 277.36 369.99 269.72 377.76 262.08 385.03 254.5 391.82 247.04 401.19 236.2 404.19 232.65" stroke-dasharray="1 3" transform="rotate(90.22222222222221, 400, 400)" opacity="0.58"></path><path d="M409.18 242.28Q419.25 244.84 429.01 247.6 438.37 250.61 447.27 253.9 463.26 261.6 477.6 270.36 489.4 280.93 499.96 292.56 509.34 305.75 518.67 319.7 513.28 328.8 509.81 337.91 508.7 347.01 510.11 356.12 513.84 365.22 519.41 374.33 526.06 383.43 532.9 392.54 539.02 401.64 543.59 410.75 546.01 419.85 545.95 428.96 543.41 438.06 538.74 447.17 532.57 456.27 525.71 465.38 514.42 466.7 503.4 468.2 492.74 469.94 482.53 471.98 472.82 474.37 463.67 477.16 447.37 484.33 432.75 492.96 420.45 504.1 409.12 516.69 395.9 526.86 377.73 528.88 367.75 527.95 358.13 527.08 340.36 525.17 323.89 522.82 309.46 519.15 296.04 514.36 283.67 507.39 271.52 498.99 275.24 489.49 278.59 479.99 281.12 470.49 282.49 460.99 282.53 451.49 281.22 441.99 278.74 432.49 275.42 422.98 271.71 413.48 268.1 403.98 265.08 394.48 263.06 384.98 262.29 375.48 262.89 365.98 264.78 356.48 267.7 346.98 277.31 342.08 287.13 336.8 297.09 331.16 307.12 325.18 317.15 318.91 327.12 312.36 336.93 305.59 346.52 298.64 355.81 291.55 364.75 284.38 373.29 277.17 381.39 269.97 389.03 262.84 396.19 255.82 406.04 245.62 409.18 242.28" stroke-dasharray="3 2" transform="rotate(97.74074074074073, 400, 400)" opacity="0.54"></path><path d="M412.78 251.92Q429.71 256.8 444.96 262.52 458.36 269.32 469.99 277.33 480.13 286.64 489.28 297.22 498.08 308.99 507.28 321.76 500.84 338.68 502.64 355.6 511.86 372.52 524.32 389.44 534.36 406.36 537.43 423.28 532.13 440.2 520.87 457.12 499.8 460.21 479.57 464.32 460.75 469.75 443.72 476.76 428.63 485.47 415.4 495.93 403.71 508.03 393.11 521.59 374.71 519.31 357.75 517.52 342.38 515.77 328.55 513.61 316.01 510.63 304.39 506.48 293.23 500.89 282.05 493.71 288.42 475.98 291.42 458.25 289.68 440.52 284 422.79 276.95 405.06 271.73 387.33 270.71 369.6 274.35 351.87 292.18 341.66 310.76 330.26 329.67 317.88 348.43 304.82 366.52 291.36 383.48 277.85 398.96 264.6 412.78 251.92 412.78 251.92 412.78 251.92" stroke-dasharray="2 4" transform="rotate(105.25925925925925, 400, 400)" opacity="0.51"></path><path d="M414.42 261.54Q428.41 265.99 440.87 271.17 451.84 277.27 461.53 284.41 470.32 292.67 478.7 302.06 487.21 312.54 496.43 323.98 492.29 339.63 495.31 355.27 504.31 370.92 515.74 386.57 525.1 402.21 528.72 417.86 525.17 433.51 515.85 449.15 496.31 452.54 477.1 456.94 458.75 462.56 441.67 469.58 426.13 478.07 412.2 488.03 399.82 499.38 388.75 511.96 373.07 509.76 358.81 508 345.94 506.32 334.26 504.38 323.47 501.82 313.21 498.37 303.06 493.78 292.65 487.89 298.16 471.44 300.26 454.99 298.12 438.55 292.58 422.1 285.83 405.65 280.52 389.21 278.73 372.76 281.17 356.31 297.3 346.19 314.29 335.11 331.84 323.27 349.59 310.92 367.12 298.3 384.01 285.7 399.88 273.37 414.42 261.54 414.42 261.54 414.42 261.54" stroke-dasharray="3 3" transform="rotate(112.77777777777779, 400, 400)" opacity="0.47"></path><path d="M413.88 271.18Q425.17 275.21 435.26 279.86 444.31 285.28 452.61 291.59 460.53 298.85 468.47 307.11 476.89 316.32 486.19 326.43 484.14 340.82 488.1 355.21 496.74 369.59 507.16 383.98 515.83 398.37 519.85 412.76 517.85 427.15 510.51 441.54 492.72 445.22 474.88 449.85 457.43 455.59 440.75 462.53 425.15 470.72 410.81 480.15 397.81 490.73 386.1 502.32 373.17 500.21 361.45 498.49 350.78 496.89 340.92 495.13 331.55 492.93 322.36 490.07 313.02 486.33 303.23 481.57 307.75 466.41 308.99 451.25 306.51 436.09 301.17 420.94 294.75 405.78 289.42 390.62 286.98 375.47 288.24 360.31 302.63 350.4 317.89 339.75 333.85 328.53 350.26 316.95 366.81 305.22 383.16 293.54 398.95 282.13 413.88 271.18 413.88 271.18 413.88 271.18" stroke-dasharray="2 3" transform="rotate(120.29629629629629, 400, 400)" opacity="0.44"></path><path d="M411.22 280.81Q420.28 284.43 428.55 288.58 436.24 293.36 443.64 298.88 451.06 305.2 458.82 312.36 467.24 320.35 476.61 329.15 476.36 342.3 480.98 355.45 489.16 368.59 498.57 381.74 506.54 394.89 510.8 408.04 510.14 421.19 504.74 434.34 488.85 438.27 472.65 443.07 456.47 448.84 440.64 455.63 425.45 463.45 411.12 472.29 397.81 482.08 385.57 492.7 375.16 490.68 365.63 489.02 348.41 485.73 331.68 481.61 322.96 478.59 313.71 474.79 317.18 460.92 317.6 447.06 314.87 433.19 309.75 419.33 303.7 405.46 298.44 391.6 295.47 377.73 295.64 363.87 308.27 354.3 321.73 344.19 335.94 333.67 350.74 322.92 365.93 312.09 381.26 301.36 396.45 290.88 411.22 280.81 411.22 280.81 411.22 280.81" stroke-dasharray="2 3" transform="rotate(127.81481481481482, 400, 400)" opacity="0.40"></path><path d="M406.85 290.44Q421.18 297.59 435.01 306.29 442.2 311.72 449.92 317.85 458.37 324.68 467.71 332.21 468.93 344.13 473.94 356.05 481.56 367.97 489.99 379.89 497.24 391.81 501.6 403.73 502.04 415.66 498.46 427.58 484.55 431.7 470.17 436.59 455.56 442.3 440.99 448.85 426.67 456.24 412.84 464.45 399.65 473.42 387.23 483.06 371.28 479.64 356.25 476.63 340.78 472.78 324 467.58 326.4 455.01 326.1 442.44 323.19 429.87 318.33 417.3 312.69 404.73 307.58 392.16 304.23 379.6 303.41 367.03 314.33 357.93 325.98 348.46 338.35 338.71 351.35 328.83 364.88 318.94 378.76 309.17 399.84 295.04 406.85 290.44" stroke-dasharray="2 1" transform="rotate(135.33333333333331, 400, 400)" opacity="0.37"></path><path d="M401.44 300.07Q414.1 306.32 427.1 313.81 434.21 318.42 441.91 323.59 450.3 329.33 459.49 335.65 461.82 346.36 466.97 357.06 473.94 367.77 481.41 378.47 487.93 389.18 492.26 399.89 493.56 410.59 491.59 421.3 479.66 425.54 467.2 430.42 454.39 435.97 441.38 442.2 428.35 449.1 415.49 456.64 402.94 464.77 390.84 473.43 377.56 470.22 364.36 467.41 349.89 464.15 334.01 460 335.39 448.73 334.48 437.45 331.46 426.18 326.91 414.91 321.71 403.63 316.84 392.36 313.25 381.08 311.62 369.81 320.9 361.31 330.79 352.57 341.3 343.67 352.42 334.7 364.09 325.77 376.22 316.96 395.08 304.22 401.44 300.07" stroke-dasharray="0 3" transform="rotate(142.85185185185185, 400, 400)" opacity="0.33"></path><path d="M395.81 309.7Q407.59 315.1 420.21 321.46 427.26 325.3 434.86 329.58 443.06 334.31 451.91 339.51 454.99 349.01 460.04 358.51 466.3 368.02 472.83 377.52 478.61 387.02 482.78 396.52 479.39 412.9 463.57 424.54 452.65 429.84 441.42 435.66 430.01 442 418.53 448.82 407.1 456.11 395.84 463.8 384.32 460.81 372.32 458.2 358.67 455.44 343.68 452.12 344.13 442.14 342.73 432.16 339.7 422.17 335.5 412.19 330.76 402.21 326.21 392.22 322.53 382.24 320.3 372.26 328.05 364.48 336.27 356.55 344.99 348.55 354.22 340.54 363.96 332.58 374.18 324.75 390.31 313.41 395.81 309.7" stroke-dasharray="0 3" transform="rotate(150.37037037037035, 400, 400)" opacity="0.30"></path><path d="M390.82 319.33Q402.02 323.79 414.55 329.21 428.78 335.83 444.92 343.8 453.14 360.42 464.24 377.04 473.19 393.66 475.93 410.29 459.11 418.96 440.74 429.24 421.33 441.03 401.47 454.17 391.14 451.39 379.81 449.05 367.12 446.73 352.92 444.02 350.85 426.61 344.08 409.21 335.67 391.81 329.45 374.41 342.5 360.41 357.01 346.33 373.12 332.52 390.82 319.33 390.82 319.33 390.82 319.33" stroke-dasharray="0 2" transform="rotate(157.88888888888889, 400, 400)" opacity="0.26"></path><path d="M387.22 328.97Q398.11 332.68 410.21 337.09 423.64 342.34 438.43 348.57 446.25 362.81 455.66 377.06 463.5 391.3 467.13 405.55 453.74 413.67 439.07 422.92 423.34 433.25 406.87 444.53 397.22 442.06 386.54 439.93 374.7 437.91 361.7 435.74 358.84 420.88 352.66 406.04 345.24 391.19 339.09 376.34 349.52 364.19 360.91 352.1 373.45 340.29 387.22 328.97 387.22 328.97 387.22 328.97" stroke-dasharray="4 0" transform="rotate(165.4074074074074, 400, 400)" opacity="0.23"></path><path d="M385.57 338.59Q395.92 341.6 407.17 345.08 419.34 349.12 432.36 353.81 439.35 365.69 447.08 377.57 453.73 389.44 457.73 401.33 447.42 408.63 436.18 416.7 424.07 425.49 411.23 434.91 402.17 432.76 392.26 430.88 381.52 429.13 369.98 427.36 366.7 415.05 361.24 402.73 354.9 390.42 349.17 378.1 357.31 367.92 365.99 357.86 380.47 343.32 385.57 338.59" stroke-dasharray="3 2" transform="rotate(172.92592592592592, 400, 400)" opacity="0.19"></path><path d="M386.11 348.23Q395.44 350.57 405.32 353.19 415.72 356.16 426.59 359.53 432.42 369.04 438.5 378.55 442.03 395.96 431.99 410.57 423.22 417.73 413.88 425.27 405.64 423.49 396.84 421.89 387.52 420.42 377.74 418.98 374.42 409.17 369.83 399.37 364.64 389.56 359.66 379.76 365.81 371.62 372.2 363.61 382.53 352.01 386.11 348.23" stroke-dasharray="3 2" transform="rotate(180.44444444444443, 400, 400)" opacity="0.16"></path><path d="M388.76 357.86Q404.42 361.41 421 365.7 429.91 380 437.34 394.31 426.52 404.52 414.42 415.64 400.22 412.98 385 410.66 378.41 396.01 370.49 381.38 384.08 363.61 388.76 357.86" stroke-dasharray="0 3" transform="rotate(187.96296296296296, 400, 400)" opacity="0.12"></path><path d="M393.13 367.49Q404.17 369.75 415.48 372.32 420.61 390.21 412.76 406.01 402.45 404.15 391.79 402.47 386.99 392.75 381.58 383.04 390.23 371.31 393.13 367.49" stroke-dasharray="3 1" transform="rotate(195.48148148148147, 400, 400)" opacity="0.09"></path></g></svg>