<svg xmlns="http://www.w3.org/2000/svg" version="1.1" xmlns:xlink="http://www.w3.org/1999/xlink" xmlns:svgjs="http://svgjs.dev/svgjs" viewBox="0 0 800 800" opacity="1"><defs><linearGradient x1="50%" y1="0%" x2="50%" y2="100%" id="ccchaos-grad"><stop stop-color="#20BDFF" stop-opacity="1" offset="0%"></stop><stop stop-color="#A5FECB" stop-opacity="1" offset="100%"></stop></linearGradient></defs><g stroke-width="3.5" stroke="url(#ccchaos-grad)" fill="none" stroke-linecap="round"><path d="M383.82 14.05Q390.46 19.71 397.35 25.86 404.55 32.53 412.16 39.72 420.25 47.4 428.87 55.51 438.09 63.98 447.95 72.73 458.47 81.63 469.68 90.57 481.59 99.41 494.17 108.02 507.4 116.27 521.25 124.04 535.65 131.23 550.54 137.75 565.83 143.54 581.42 148.59 597.23 152.88 613.13 156.45 629 159.36 644.74 161.71 660.21 163.63 675.3 165.26 689.9 166.77 703.89 168.32 717.19 170.1 729.7 172.28 741.35 175.04 752.1 178.51 763.01 190.88 754.44 209.81 742.42 220.69 728.97 231.56 715.15 242.43 702 253.31 690.55 264.18 681.67 275.06 676.05 285.93 674.13 296.81 676.04 307.68 681.64 318.56 690.51 329.43 701.95 340.3 715.09 351.18 728.92 362.05 742.36 372.93 754.4 383.8 764.09 394.68 770.7 405.55 773.71 416.43 772.89 427.3 768.31 438.18 760.31 449.05 749.52 459.93 736.77 470.8 723.03 481.68 709.37 492.55 696.83 503.42 686.38 514.3 678.83 525.17 674.76 536.05 664.69 541.9 655.58 549.77 647.38 559.63 640.03 571.33 633.44 584.67 627.53 599.39 622.19 615.15 617.31 631.57 612.77 648.23 608.45 664.72 604.23 680.61 599.99 695.49 595.61 708.97 590.97 720.75 580.28 737.08 568.03 746.72 552.6 745.63 535.09 739.26 525.1 733.83 514.44 727.75 503.13 721.5 491.24 715.54 478.82 710.37 465.93 706.41 452.66 704.08 439.08 703.72 425.29 705.61 411.36 709.93 396.59 705.36 380.4 707.38 371.43 711.5 361.95 716.79 351.96 722.81 341.51 729.08 330.6 735.12 319.3 740.46 307.65 744.69 295.69 747.41 283.5 748.32 271.13 747.17 258.65 743.81 246.12 738.17 233.59 730.27 221.13 720.23 208.8 708.25 196.62 694.58 184.66 679.57 172.93 663.59 161.46 647.05 150.28 630.38 139.37 614 128.75 598.34 118.4 583.75 108.31 570.56 98.45 559.05 88.79 549.41 79.3 541.75 69.93 536.13 70.43 525.25 71.36 514.38 72.65 503.5 74.19 492.62 75.87 481.75 77.55 470.87 79.12 460 80.45 449.12 81.43 438.24 81.99 427.37 82.09 416.49 81.72 405.62 80.91 394.74 79.72 383.86 78.24 372.99 76.59 362.11 74.89 351.24 73.28 340.36 71.87 329.48 70.78 318.61 70.09 307.73 69.86 296.86 70.09 285.98 70.78 275.11 71.87 264.23 73.28 253.35 74.9 242.48 76.6 231.6 78.25 220.73 79.73 209.85 80.92 198.98 81.73 188.1 92.76 182.75 103.71 178.34 114.52 174.78 125.17 171.95 135.61 169.7 145.82 167.88 155.76 166.3 165.42 164.79 174.79 163.17 183.86 161.29 192.64 158.98 201.14 156.12 209.39 152.62 217.42 148.41 225.26 143.45 232.97 137.73 240.59 131.29 248.18 124.17 255.81 116.46 263.54 108.27 271.44 99.7 279.56 90.88 287.98 81.96 296.74 73.06 305.9 64.3 315.51 55.8 325.6 47.65 336.2 39.93 347.33 32.69 358.98 25.96 377.48 16.91 383.82 14.05" stroke-dasharray="1 1" transform="rotate(0, 400, 400)" opacity="0.73"></path><path d="M377.29 26.94Q384.47 32.39 392.02 38.34 400.01 44.8 408.48 51.78 417.49 59.23 427.06 67.12 437.23 75.39 448 83.93 459.4 92.65 471.39 101.44 483.97 110.17 497.1 118.72 510.74 126.97 524.82 134.8 539.27 142.1 554.02 148.79 568.99 154.81 584.07 160.1 599.17 164.66 614.18 168.49 629.01 171.64 643.54 174.18 657.68 176.19 671.34 177.82 684.41 179.18 696.83 180.44 708.52 181.77 719.42 183.32 729.49 185.25 738.7 187.74 746.78 198.12 736.04 215.82 723.86 226.31 710.83 236.79 697.88 247.27 685.94 257.76 675.86 268.24 668.36 278.72 663.98 289.2 663.03 299.69 665.57 310.17 671.44 320.65 680.19 331.13 691.23 341.62 703.74 352.1 716.84 362.58 729.6 373.06 741.1 383.55 750.52 394.03 757.19 404.51 760.63 414.99 760.6 425.48 757.09 435.96 750.37 446.44 740.9 456.92 729.37 467.41 716.6 477.89 703.5 488.37 691.01 498.85 680.01 509.34 671.3 519.82 665.5 530.3 654.72 538.16 644.83 547.8 635.8 559.11 627.6 571.91 620.18 585.94 613.47 600.93 607.4 616.53 601.88 632.39 596.81 648.14 592.11 663.39 587.65 677.79 583.34 691.01 579.07 702.74 574.74 712.73 565.32 725.81 554.89 732.73 542.08 730.19 527.55 723.18 519.2 717.86 510.23 712.08 500.63 706.28 490.44 700.86 479.67 696.23 468.38 692.8 456.61 690.9 444.42 690.83 431.87 692.82 419.04 697.04 402.93 692.35 385.33 693.73 375.66 697.32 365.54 702.06 354.98 707.56 344.02 713.39 332.71 719.14 321.1 724.4 309.25 728.76 297.2 731.9 285.02 733.49 272.77 733.3 260.51 731.15 248.29 726.95 236.17 720.68 224.18 712.37 212.37 702.16 200.79 690.25 189.44 676.87 178.36 662.35 167.56 647.01 157.04 631.22 146.8 615.37 136.83 599.81 127.11 584.91 117.63 570.99 108.35 558.35 99.24 547.22 90.28 537.77 81.41 530.12 82.23 519.64 83.46 509.16 85.02 498.68 86.78 488.2 88.64 477.72 90.44 467.24 92.07 456.76 93.41 446.28 94.36 435.8 94.86 425.32 94.86 414.84 94.38 404.36 93.43 393.88 92.1 383.4 90.48 372.93 88.67 362.45 86.82 351.97 85.05 341.49 83.49 331.01 82.25 320.53 81.42 310.05 81.06 299.57 81.19 289.09 81.81 278.61 82.87 268.13 84.3 257.65 85.99 247.17 87.82 236.69 89.66 226.21 91.39 215.73 92.87 205.25 94 194.77 104.77 190.71 115.48 187.46 126.08 184.9 136.56 182.9 146.85 181.31 156.94 179.96 166.8 178.69 176.39 177.33 185.71 175.74 194.73 173.77 203.46 171.29 211.9 168.21 220.06 164.45 227.96 159.97 235.63 154.76 243.09 148.83 250.4 142.21 257.59 134.98 264.72 127.21 271.85 119.01 279.03 110.49 286.32 101.78 293.79 93 301.49 84.27 309.49 75.71 317.83 67.42 326.56 59.49 335.73 51.99 345.36 44.97 355.49 38.45 371.71 29.7 377.29 26.94" stroke-dasharray="3 1" transform="rotate(4, 400, 400)" opacity="0.90"></path><path d="M373.2 39.83Q381.13 45.08 389.5 50.81 398.35 57.06 407.7 63.8 417.59 71.02 428.02 78.68 438.99 86.71 450.49 95.03 462.51 103.55 475.02 112.16 487.97 120.76 501.33 129.23 515.02 137.45 528.98 145.31 543.14 152.71 557.43 159.56 571.75 165.78 586.02 171.33 600.15 176.17 614.05 180.3 627.63 183.74 640.81 186.53 653.51 188.75 665.66 190.49 677.18 191.85 688.03 192.98 698.16 194.02 707.54 195.12 725.91 205.77 717.35 223.33 705.3 233.46 692.9 243.6 680.97 253.73 670.29 263.86 661.58 273.99 655.41 284.12 652.18 294.25 652.11 304.38 655.21 314.51 661.26 324.64 669.87 334.77 680.47 344.91 692.37 355.04 704.76 365.17 716.84 375.3 727.81 385.43 736.94 395.56 743.63 405.69 747.44 415.82 748.11 425.95 745.6 436.08 740.08 446.21 731.92 456.34 721.64 466.48 709.93 476.61 697.57 486.74 685.37 496.87 674.13 507 664.6 517.13 657.41 527.26 646.07 536.8 635.52 547.82 625.76 560.17 616.79 573.61 608.57 587.89 601.07 602.73 594.23 617.8 587.98 632.78 582.27 647.35 577.01 661.18 572.12 673.98 567.51 685.48 558.77 702.81 550.05 714.73 532.35 714.53 517.76 707.11 510.84 701.96 503.38 696.53 495.37 691.19 486.8 686.29 477.68 682.21 468.02 679.26 457.85 677.76 447.21 677.95 436.13 680.04 424.67 684.15 416.2 680.28 407.24 678.43 397.82 678.46 387.95 680.15 377.67 683.25 367 687.46 355.99 692.43 344.68 697.82 333.14 703.24 321.4 708.33 309.53 712.76 297.58 716.18 285.6 718.33 273.65 718.95 261.77 717.88 250.02 714.98 238.42 710.19 227.03 703.52 215.86 695.04 204.94 684.87 194.29 673.2 183.92 660.26 173.82 646.32 164.01 631.67 154.45 616.65 145.15 601.58 136.08 586.79 127.21 572.58 118.51 559.25 109.96 547.05 101.52 536.19 93.15 526.83 94.3 516.71 95.83 506.58 97.64 496.46 99.6 486.33 101.58 476.21 103.46 466.09 105.11 455.96 106.42 445.84 107.31 435.71 107.71 425.59 107.6 415.46 106.99 405.34 105.92 395.22 104.45 385.09 102.69 374.97 100.75 364.84 98.76 354.72 96.85 344.59 95.15 334.47 93.76 324.35 92.79 314.22 92.29 304.1 92.31 293.97 92.82 283.85 93.82 273.72 95.21 263.6 96.93 253.47 98.85 243.35 100.84 233.22 102.77 223.1 104.52 212.98 105.97 202.85 116.47 199.96 126.93 197.71 137.32 195.98 147.61 194.63 157.76 193.51 167.74 192.47 177.51 191.35 187.05 190.01 196.33 188.32 205.34 186.15 214.07 183.43 222.51 180.06 230.66 176.01 238.52 171.26 246.12 165.79 253.47 159.64 260.61 152.87 267.56 145.53 274.37 137.73 281.09 129.55 287.75 121.11 294.42 112.53 301.15 103.92 307.99 95.39 315.01 87.05 322.26 78.99 329.78 71.29 337.64 64.02 345.88 57.23 354.53 50.93 368.42 42.48 373.2 39.83" stroke-dasharray="5 4" transform="rotate(8, 400, 400)" opacity="0.48"></path><path d="M372.01 52.72Q380.75 57.75 389.94 63.27 399.6 69.29 409.74 75.8 420.35 82.77 431.44 90.17 442.97 97.95 454.93 106.02 467.28 114.32 479.97 122.74 492.96 131.18 506.19 139.54 519.59 147.7 533.11 155.57 546.67 163.03 560.19 170.01 573.59 176.43 586.81 182.23 599.77 187.36 612.38 191.81 624.59 195.58 636.33 198.69 647.54 201.18 658.17 203.14 668.18 204.64 677.53 205.79 693.81 207.57 708.02 209.47 711.73 216.67 698.51 232.31 686.86 242.12 675.28 251.93 664.47 261.74 655.1 271.55 647.73 281.37 642.81 291.18 640.65 300.99 641.37 310.8 644.93 320.61 651.11 330.42 659.54 340.24 669.7 350.05 680.98 359.86 692.68 369.67 704.1 379.48 714.54 389.3 723.36 399.11 730.03 408.92 734.13 418.73 735.43 428.54 733.84 438.35 729.45 448.17 722.54 457.98 713.53 467.79 702.96 477.6 691.48 487.41 679.78 497.22 668.59 507.03 658.58 516.85 650.36 526.66 638.61 537.47 627.55 549.44 617.2 562.36 607.56 576 598.62 590.11 590.37 604.42 582.77 618.63 575.79 632.47 569.37 645.66 563.46 657.93 557.99 669.06 552.9 678.83 543.63 692.88 534.82 701.89 518.8 699.12 506.23 691.08 494.02 681.2 480.48 671.86 464.52 666.49 447.11 665.11 437.58 667.27 427.62 671.27 418.37 667.5 408.68 665.56 398.6 665.34 388.17 666.66 377.41 669.29 366.37 672.98 355.11 677.44 343.66 682.36 332.09 687.42 320.43 692.31 308.75 696.7 297.09 700.32 285.5 702.89 274.02 704.18 262.69 704.02 251.54 702.27 240.6 698.83 229.91 693.69 219.47 686.85 209.29 678.39 199.39 668.43 189.77 657.14 180.41 644.74 171.31 631.45 162.46 617.54 153.83 603.29 145.4 588.99 137.14 574.91 129.02 561.34 121.01 548.52 113.08 536.68 105.19 526.01 106.68 516.21 108.48 506.41 110.5 496.61 112.61 486.8 114.68 477 116.59 467.2 118.22 457.4 119.47 447.6 120.26 437.79 120.54 427.99 120.31 418.19 119.57 408.39 118.37 398.58 116.77 388.78 114.89 378.98 112.83 369.18 110.72 359.38 108.68 349.57 106.85 339.77 105.33 329.97 104.21 320.17 103.57 310.36 103.44 300.56 103.83 290.76 104.72 280.96 106.05 271.15 107.74 261.35 109.69 251.55 111.78 241.75 113.88 231.94 121.85 216.29 138.02 209 148.19 207.91 158.28 207.01 168.27 206.18 178.12 205.27 187.8 204.14 197.28 202.68 206.54 200.78 215.55 198.35 224.3 195.32 232.77 191.63 240.96 187.26 248.86 182.21 256.48 176.5 263.83 170.15 270.93 163.24 277.79 155.83 284.44 148.02 290.93 139.89 297.28 131.56 303.54 123.13 309.75 114.71 315.97 106.4 322.25 98.3 328.63 90.49 335.17 83.05 341.93 76.02 348.94 69.46 356.27 63.39 367.98 55.26 372.01 52.72" stroke-dasharray="2 3" transform="rotate(12, 400, 400)" opacity="0.49"></path><path d="M373.84 65.6Q383.31 70.44 393.21 75.74 403.52 81.52 414.23 87.77 425.33 94.49 436.8 101.62 448.59 109.13 460.68 116.94 473.02 124.99 485.56 133.19 498.25 141.44 511.02 149.65 523.83 157.73 536.6 165.56 549.27 173.07 561.78 180.15 574.06 186.74 586.05 192.76 597.69 198.18 608.92 202.95 619.7 207.07 629.98 210.54 639.71 213.38 648.87 215.64 665.07 218.53 679.42 220.42 690.64 227.44 679.68 242.62 668.66 252.14 658.05 261.65 648.44 271.17 640.37 280.69 634.3 290.2 630.56 299.72 629.37 309.23 630.78 318.75 634.72 328.27 640.98 337.78 649.19 347.3 658.9 356.82 669.57 366.33 680.6 375.85 691.37 385.36 701.28 394.88 709.78 404.4 716.38 413.91 720.73 423.43 722.57 432.94 721.8 442.46 718.47 451.98 712.77 461.49 705 471.01 695.62 480.52 685.13 490.04 674.13 499.56 663.24 509.07 653.06 518.59 644.17 528.1 632.18 539.74 620.77 552.19 609.98 565.23 599.81 578.65 590.27 592.2 581.36 605.63 573.07 618.72 565.37 631.2 558.24 642.87 551.64 653.5 545.53 662.94 539.85 671.03 522.81 685.48 511.59 688.19 502.77 682.83 493.56 675.1 483.19 665.94 471.85 657.54 458.59 653.05 444.06 652.28 436.04 654.5 427.61 658.38 417.68 654.71 407.42 652.71 396.87 652.27 386.06 653.23 375.05 655.42 363.89 658.62 352.6 662.58 341.25 667.03 329.88 671.71 318.54 676.33 307.26 680.62 296.09 684.33 285.06 687.2 274.21 689.03 263.56 689.64 253.14 688.88 242.96 686.65 233.05 682.89 223.4 677.58 214.02 670.75 204.9 662.48 196.05 652.87 187.45 642.09 179.08 630.3 170.92 617.72 162.95 604.57 155.14 591.09 147.48 577.54 139.92 564.15 132.44 551.17 125 538.81 117.59 527.28 119.38 517.78 121.42 508.27 123.61 498.77 125.82 489.26 127.93 479.76 129.81 470.25 131.37 460.75 132.52 451.25 133.19 441.74 133.34 432.24 132.97 422.73 132.1 413.23 130.77 403.72 129.07 394.22 127.08 384.72 124.91 375.21 122.69 365.71 120.55 356.2 118.6 346.7 116.95 337.19 115.69 327.69 114.9 318.18 114.62 308.68 114.86 299.17 115.61 289.67 116.83 280.17 118.45 270.66 120.38 261.16 122.51 251.65 124.73 242.15 132.85 227.33 148.72 221.18 158.63 220.5 168.5 219.86 178.3 219.13 188 218.18 197.57 216.91 206.98 215.22 216.2 213.02 225.21 210.26 233.99 206.87 242.52 202.83 250.78 198.14 258.76 192.81 266.47 186.86 273.9 180.35 281.05 173.33 287.94 165.88 294.59 158.08 301.01 150.04 307.23 141.85 313.29 133.6 319.22 125.4 325.05 117.33 330.83 109.49 336.61 101.95 342.43 94.77 348.34 88.01 367.29 70.85 373.84 65.6" stroke-dasharray="4 2" transform="rotate(16, 400, 400)" opacity="0.83"></path><path d="M378.48 78.49Q388.52 83.11 398.89 88.18 409.59 93.72 420.6 99.72 431.88 106.17 443.4 113.02 455.12 120.24 467.01 127.77 479 135.55 491.06 143.5 503.13 151.53 515.16 159.57 527.09 167.52 538.87 175.29 550.45 182.79 561.77 189.94 572.78 196.66 583.43 202.89 593.69 208.57 603.51 213.66 612.85 218.13 621.7 221.98 637.53 227.56 651.74 231.51 670.89 239.53 661.02 254.07 650.81 263.3 641.28 272.54 632.91 281.77 626.14 291.01 621.3 300.24 618.65 309.48 618.33 318.71 620.34 327.95 624.59 337.18 630.86 346.41 638.83 355.65 648.08 364.88 658.15 374.12 668.52 383.35 678.66 392.59 688.05 401.82 696.2 411.06 702.71 420.29 707.23 429.53 709.53 438.76 709.51 447.99 707.15 457.23 702.58 466.46 696.04 475.7 687.85 484.93 678.44 494.17 668.29 503.4 657.93 512.64 647.87 521.87 638.64 531.1 626.59 543.1 615.01 555.56 603.94 568.3 593.4 581.1 583.4 593.75 573.96 606.05 565.08 617.79 556.75 628.78 548.96 638.84 541.69 647.81 528.81 661.38 517.19 670.9 500.36 671.97 489.18 667.15 480.43 659.14 471.38 650.66 452.99 641.2 438.31 639.48 422.94 641.84 403.64 639.89 392.87 639.24 381.97 639.89 370.98 641.66 359.95 644.39 348.9 647.86 337.9 651.85 326.96 656.12 316.14 660.44 305.46 664.57 294.96 668.27 284.65 671.34 274.56 673.58 264.71 674.8 255.11 674.88 245.77 673.69 236.69 671.16 227.87 667.25 219.31 661.95 210.99 655.3 202.91 647.35 195.05 638.22 187.39 628.02 179.91 616.92 172.58 605.08 165.38 592.72 158.28 580.02 151.26 567.21 144.28 554.49 137.32 542.07 130.35 530.15 132.4 520.93 134.64 511.71 136.94 502.49 139.19 493.27 141.28 484.05 143.1 474.82 144.56 465.6 145.57 456.38 146.1 447.16 146.1 437.94 145.59 428.72 144.58 419.5 143.14 410.27 141.33 401.05 139.24 391.83 136.99 382.61 134.69 373.39 132.45 364.17 130.39 354.94 128.62 345.72 127.23 336.5 126.29 327.28 125.84 318.06 125.91 308.84 126.5 299.62 127.57 290.39 129.08 281.17 130.94 271.95 133.06 262.73 135.32 253.51 143.51 239.38 159.01 234.01 168.63 233.54 178.24 232.96 187.82 232.16 197.34 231.03 206.77 229.49 216.07 227.48 225.23 224.91 234.22 221.76 243.01 218 251.58 213.61 259.92 208.6 268 203 275.83 196.85 283.39 190.19 290.67 183.1 297.68 175.65 304.43 167.92 310.92 159.99 317.18 151.97 323.21 143.93 329.05 135.97 334.72 128.17 340.26 120.61 345.7 113.35 356.44 100.18 367.24 88.3 375.63 80.83 378.48 78.49" stroke-dasharray="3 3" transform="rotate(20, 400, 400)" opacity="0.41"></path><path d="M385.45 91.38Q395.77 95.79 406.34 100.64 417.12 105.93 428.1 111.66 439.22 117.82 450.47 124.38 461.78 131.3 473.14 138.53 484.48 146.02 495.77 153.69 506.96 161.48 518 169.31 528.85 177.1 539.47 184.77 549.81 192.22 559.83 199.39 569.5 206.21 578.78 212.6 587.65 218.51 596.08 223.89 611.32 232.63 625.12 239.62 643.79 245.61 654.97 247.87 655.47 252.82 642.64 266.39 633.4 275.35 625.03 284.3 617.92 293.26 612.4 302.21 608.72 311.17 607.07 320.13 607.52 329.08 610.04 338.04 614.52 346.99 620.75 355.95 628.44 364.9 637.23 373.86 646.71 382.82 656.44 391.77 665.96 400.73 674.82 409.68 682.62 418.64 688.99 427.59 693.64 436.55 696.33 445.51 696.96 454.46 695.49 463.42 691.99 472.37 686.62 481.33 679.63 490.29 671.35 499.24 662.17 508.2 652.51 517.15 642.83 526.11 633.58 535.07 621.65 546.95 610.07 559.01 598.9 571.06 588.15 582.92 577.86 594.41 568.04 605.36 558.71 615.61 549.86 625.01 541.51 633.44 533.64 640.79 519.51 651.32 506.67 658.15 488.27 656.67 476.38 651.03 461.18 637.8 450.18 629.29 432.71 627.7 418.96 632.61 408.43 629.17 397.8 627.07 387.12 626.25 376.41 626.6 365.72 627.99 355.08 630.27 344.53 633.27 334.1 636.79 323.82 640.65 313.71 644.63 303.8 648.54 294.1 652.17 284.63 655.33 275.41 657.84 257.84 659.78 241.03 658.56 233.06 655.9 225.32 652 217.79 646.86 210.47 640.5 203.33 633 196.36 624.42 189.52 614.89 182.79 604.52 176.16 593.48 169.6 581.92 163.07 570.01 156.56 557.94 150.04 545.89 143.49 534.04 145.75 525.1 148.11 516.15 150.47 507.21 152.71 498.27 154.73 489.33 156.44 480.38 157.75 471.44 158.6 462.5 158.96 453.56 158.81 444.62 158.15 435.67 157.02 426.73 155.46 417.79 153.56 408.85 151.39 399.9 149.07 390.96 146.7 382.02 144.38 373.08 142.23 364.13 140.36 355.19 138.84 346.25 137.74 337.31 137.13 328.37 137.02 319.42 137.42 310.48 138.32 301.54 139.67 292.6 141.4 283.66 143.45 274.71 145.7 265.77 153.84 252.22 168.87 247.28 178.17 246.81 187.49 246.1 196.81 245.07 206.1 243.64 215.34 241.74 224.5 239.33 233.55 236.35 242.48 232.8 251.25 228.65 259.84 223.91 268.23 218.61 276.41 212.78 284.36 206.46 292.06 199.7 299.51 192.58 306.69 185.16 313.62 177.53 320.28 169.76 326.68 161.94 332.84 154.14 338.76 146.45 344.46 138.94 355.23 124.9 365.58 111.9 380.49 96.18 385.45 91.38" stroke-dasharray="2 5" transform="rotate(24, 400, 400)" opacity="0.42"></path><path d="M393.99 104.27Q414.71 113.08 435.85 123.58 457.15 135.7 478.32 149.22 499.05 163.77 519.05 178.87 538.03 193.98 555.75 208.49 572.02 221.85 586.69 233.58 599.69 243.31 611.03 250.84 628.54 258.72 642.59 261.92 624.68 279.26 609.35 296.6 599.15 313.94 595.8 331.28 599.86 348.62 610.65 365.96 626.36 383.31 644.36 400.65 661.62 417.99 675.26 435.33 682.98 452.67 683.5 470.01 676.72 487.36 663.78 504.7 646.86 522.04 628.78 539.38 605.72 562.02 583.84 583.72 563.4 603.31 544.56 619.8 527.42 632.41 511.98 640.71 498.19 644.62 485.9 644.47 474.93 640.91 465.01 634.94 455.87 627.79 447.2 620.81 438.69 615.36 430.04 612.72 420.98 613.93 411.26 619.72 390.56 614.28 370.04 613.39 349.92 616.29 330.43 621.91 311.72 628.96 293.92 636.09 277.07 641.93 261.2 645.28 246.26 645.16 232.17 640.93 218.8 632.31 206 619.39 193.6 602.63 181.41 582.83 169.27 561.01 156.99 538.34 161.82 521.02 166.34 503.71 169.79 486.39 171.6 469.08 171.46 451.76 169.4 434.45 165.76 417.13 161.15 399.82 156.35 382.5 152.15 365.19 149.27 347.87 148.19 330.56 149.08 313.24 151.8 295.93 155.9 278.61 160.68 261.3 178.34 260.67 196.26 259.03 214.29 255.82 232.24 250.63 249.94 243.26 267.19 233.69 283.83 222.1 299.7 208.85 314.68 194.42 328.69 179.35 341.68 164.23 353.69 149.64 364.77 136.04 375.06 123.82 389.36 108.73 393.99 104.27" stroke-dasharray="1 1" transform="rotate(28, 400, 400)" opacity="0.84"></path><path d="M403.17 117.15Q423.07 125.52 442.98 135.48 462.67 146.98 481.89 159.84 500.38 173.73 517.93 188.26 534.35 202.94 549.47 217.24 563.2 230.65 575.48 242.71 586.31 253.04 595.77 261.4 610.77 271.06 623.39 275.55 607.27 292.29 594.28 309.03 586.41 325.78 584.83 342.52 589.8 359.26 600.55 376 615.47 392.74 632.28 409.49 648.44 426.23 661.5 442.97 669.49 459.71 671.19 476.46 666.34 493.2 655.68 509.94 640.83 526.68 624.03 543.43 601.72 564.1 580.23 583.16 559.8 599.72 540.64 613.06 522.88 622.7 506.6 628.44 491.8 630.39 478.44 628.96 466.4 624.83 455.53 618.92 445.64 612.3 436.49 606.13 419.43 601.37 402.35 606.84 382.73 601.52 363.6 600.26 345.12 602.45 327.44 607.19 310.64 613.45 294.77 620.06 279.82 625.89 265.76 629.85 252.51 631.05 239.95 628.82 227.95 622.77 216.35 612.83 205 599.22 193.73 582.42 182.39 563.19 170.83 542.42 175.71 525.71 180.03 508.99 183.13 492.27 184.54 475.55 184.04 458.83 181.72 442.11 177.93 425.4 173.23 408.68 168.34 391.96 164.01 375.24 160.89 358.53 159.44 341.81 159.9 325.09 162.19 308.37 165.96 291.66 170.65 274.94 187.45 273.9 204.58 271.52 221.91 267.39 239.3 261.27 256.58 253.08 273.6 242.9 290.18 230.97 306.17 217.65 321.43 203.41 335.84 188.76 349.33 174.21 361.87 160.26 373.45 147.33 384.12 135.72 398.58 121.39 403.17 117.15" stroke-dasharray="3 3" transform="rotate(32, 400, 400)" opacity="0.51"></path><path d="M412.01 130.04Q430.51 137.96 448.69 147.37 466.36 158.24 483.33 170.4 499.41 183.61 514.46 197.5 528.37 211.66 541.05 225.65 552.49 238.99 562.68 251.26 571.71 262.09 579.66 271.19 592.82 282.76 604.58 289.01 590.48 305.11 579.86 321.21 574.15 337.3 574.14 353.4 579.83 369.5 590.45 385.6 604.54 401.7 620.2 417.8 635.28 433.9 647.73 450 655.87 466.1 658.57 482.2 655.48 498.3 647.01 514.4 634.31 530.5 619.12 546.6 597.83 564.81 577.04 580.97 556.98 594.44 537.85 604.77 519.82 611.7 502.99 615.22 487.43 615.54 473.15 613.15 460.13 608.69 448.27 602.99 437.47 596.98 427.57 591.63 409.9 588.17 393.18 593.95 375.17 588.77 357.85 587.19 341.32 588.72 325.65 592.64 310.87 598.09 296.96 604.12 283.87 609.77 271.54 614.1 259.86 616.3 248.7 615.73 237.93 611.95 227.4 604.73 216.98 594.13 206.51 580.41 195.88 564.04 184.97 545.69 189.76 529.61 193.76 513.54 196.43 497.46 197.4 481.38 196.55 465.3 193.99 449.22 190.06 433.14 185.31 417.06 180.38 400.98 175.93 384.91 172.59 368.83 170.79 352.75 170.8 336.67 172.6 320.59 175.94 304.52 180.39 288.44 196.26 286.66 212.5 283.34 229.03 278.21 245.73 271.16 262.46 262.22 279.08 251.53 295.44 239.37 311.39 226.11 326.79 212.17 341.52 198.02 355.47 184.1 368.56 170.84 380.76 158.59 392.04 147.61 407.22 134.06 412.01 130.04" stroke-dasharray="6 1" transform="rotate(36, 400, 400)" opacity="0.43"></path><path d="M419.56 142.93Q436.2 150.4 452.3 159.26 467.71 169.48 482.29 180.93 495.95 193.4 508.59 206.6 520.18 220.17 530.69 233.74 540.15 246.89 548.62 259.23 556.2 270.42 563.02 280.14 574.97 293.62 586.34 301.91 574.42 317.31 566.09 332.71 562.37 348.12 563.71 363.52 569.95 378.92 580.33 394.33 593.59 409.73 608.12 425.14 622.14 440.54 633.96 455.94 642.13 471.35 645.66 486.75 644.13 502.16 637.72 517.56 627.2 532.97 613.86 548.37 593.83 563.78 574.02 576.94 554.64 587.41 535.89 594.95 517.94 599.49 500.9 601.13 484.89 600.19 469.96 597.12 456.13 592.54 443.38 587.19 431.67 581.84 420.9 577.3 410.97 574.33 401.73 573.63 393.05 575.75 384.75 581.06 368.72 576.04 353.48 574.19 339.07 575.12 325.49 578.26 312.71 582.91 300.69 588.3 289.35 593.63 278.6 598.12 268.32 601.03 258.4 601.78 248.7 599.9 239.1 595.1 229.47 587.3 219.7 576.57 209.69 563.2 199.35 547.6 203.89 532.22 207.47 516.83 209.66 501.44 210.18 486.05 208.98 470.67 206.19 455.28 202.17 439.89 197.39 424.51 192.44 409.12 187.92 393.73 184.39 378.35 182.26 362.96 181.8 347.57 183.07 332.19 185.91 316.8 189.97 301.41 204.84 298.66 220.12 294.28 235.74 288.14 251.61 280.23 267.63 270.64 283.68 259.58 299.63 247.33 315.35 234.25 330.72 220.71 345.59 207.13 359.86 193.9 373.43 181.36 386.23 169.82 398.19 159.49 414.43 146.72 419.56 142.93" stroke-dasharray="4 1" transform="rotate(40, 400, 400)" opacity="0.73"></path><path d="M424.99 155.81Q439.5 162.82 453.34 171.13 466.41 180.69 478.66 191.41 490.02 203.11 500.47 215.56 510.02 228.48 518.69 241.52 526.55 254.35 533.67 266.62 540.18 278 546.21 288.21 557.47 303.44 568.83 313.88 559.14 328.53 552.99 343.18 551.04 357.83 553.52 372.48 560.14 387.13 570.2 401.78 582.61 416.43 596.04 431.08 609.02 445.73 620.17 460.39 628.29 475.04 632.48 489.69 632.31 504.34 627.79 518.99 619.41 533.64 608.07 548.29 589.47 560.77 570.88 570.96 552.47 578.64 534.43 583.7 516.9 586.2 500.02 586.34 483.91 584.44 468.64 580.97 454.28 576.47 440.85 571.57 428.35 566.91 416.76 563.16 406.01 560.92 396.02 560.75 386.72 563.06 377.97 568.18 364.14 563.33 351.08 561.26 338.79 561.66 327.23 564.07 316.34 567.94 306.06 572.66 296.28 577.56 286.91 582 277.85 585.36 268.97 587.09 260.18 586.75 251.35 584.02 242.39 578.72 233.21 570.81 223.73 560.39 213.89 547.71 218.05 533.07 221.13 518.43 222.79 503.79 222.85 489.15 221.31 474.51 218.33 459.88 214.24 445.24 209.47 430.6 204.54 415.96 199.98 401.32 196.29 386.68 193.86 372.05 192.95 357.41 193.66 342.77 195.92 328.13 199.48 313.5 213.29 309.63 227.52 304.16 242.13 297.06 257.06 288.4 272.22 278.32 287.53 267.04 302.87 254.85 318.15 242.07 333.25 229.04 348.04 216.11 362.43 203.61 376.29 191.84 389.55 181.03 402.12 171.36 419.47 159.37 424.99 155.81" stroke-dasharray="5 1" transform="rotate(44, 400, 400)" opacity="0.17"></path><path d="M427.73 168.7Q440 175.26 451.58 183 462.42 191.89 472.51 201.86 481.83 212.77 490.4 224.43 498.26 236.61 505.46 249.04 512.08 261.42 518.23 273.46 524 284.87 529.54 295.38 534.97 304.76 540.46 312.83 546.13 319.47 552.16 324.63 544.67 338.47 540.54 352.31 540.15 366.14 543.54 379.98 550.4 393.82 560.06 407.65 571.61 421.49 583.96 435.32 595.94 449.16 606.4 463 614.35 476.83 619.04 490.67 620.03 504.5 617.22 518.34 610.88 532.17 601.6 546.01 584.58 555.58 567.39 562.99 550.19 568.16 533.13 571.1 516.35 571.95 499.97 570.94 484.11 568.41 468.87 564.78 454.31 560.52 440.49 556.15 427.45 552.2 415.2 549.2 403.72 547.63 392.99 547.91 382.95 550.39 373.55 555.29 361.95 550.64 351.02 548.39 340.73 548.32 331.02 550.05 321.82 553.18 313.04 557.2 304.6 561.6 296.39 565.83 280.28 571.01 264.04 571.59 255.62 568.44 246.93 563.05 237.91 555.41 228.51 545.64 232.18 531.81 234.68 517.98 235.79 504.15 235.4 490.32 233.55 476.49 230.41 462.67 226.28 448.84 221.55 435.01 216.68 421.18 212.11 407.35 208.3 393.52 205.6 379.69 204.26 365.87 204.41 352.04 206.04 338.21 209 324.38 221.7 319.36 234.82 312.86 248.34 304.93 262.21 295.68 276.38 285.28 290.77 273.95 305.32 261.97 319.94 249.62 334.52 237.19 348.98 224.99 363.21 213.27 377.12 202.28 390.6 192.22 403.58 183.22 421.86 172.03 427.73 168.7" stroke-dasharray="2 2" transform="rotate(48, 400, 400)" opacity="0.19"></path><path d="M427.48 181.59Q437.59 187.69 447.07 194.86 455.92 203.08 464.13 212.29 471.75 222.39 478.8 233.22 485.35 244.6 491.46 256.32 497.22 268.13 502.71 279.79 508.05 291.04 513.35 301.66 518.72 311.42 524.27 320.13 530.14 327.65 536.43 333.89 531.05 346.86 528.73 359.82 529.66 372.79 533.76 385.75 540.69 398.72 549.89 411.68 560.58 424.65 571.88 437.61 582.87 450.58 592.62 463.54 600.33 476.5 605.37 489.47 607.32 502.43 606.01 515.4 601.56 528.36 594.33 541.33 578.95 548.17 563.3 553.09 547.5 556.11 531.66 557.33 515.91 556.91 500.35 555.1 485.09 552.22 470.22 548.63 455.83 544.74 441.97 540.96 428.71 537.72 416.07 535.43 404.08 534.47 392.75 535.15 382.06 537.73 372 542.4 362.47 537.96 353.47 535.59 337 536.87 321.51 541.97 306.86 549.51 292.22 556.01 276.88 557.13 260.76 553.35 252.13 548.22 243.14 541.18 246.2 528.22 248.08 515.25 248.64 502.29 247.81 489.33 245.68 476.37 242.41 463.41 238.28 450.45 233.63 437.49 228.84 424.52 224.32 411.56 220.42 398.6 217.49 385.64 215.75 372.68 215.36 359.71 216.34 346.75 218.62 333.79 230.19 327.69 242.15 320.3 254.51 311.71 267.23 302.06 280.29 291.53 293.63 280.34 307.2 268.72 320.94 256.92 334.77 245.19 348.63 233.78 362.42 222.88 376.06 212.71 389.47 203.41 402.56 195.08 421.36 184.69 427.48 181.59" stroke-dasharray="4 3" transform="rotate(52, 400, 400)" opacity="0.99"></path><path d="M424.26 194.47Q432.45 200.12 440.12 206.72 447.3 214.27 454.01 222.71 460.3 231.98 466.22 241.95 471.83 252.48 477.2 263.4 482.41 274.53 487.54 285.66 492.68 296.58 497.93 307.1 503.36 317.01 509.08 326.14 515.18 334.34 521.73 341.48 518.28 353.52 517.54 365.57 519.54 377.61 524.14 389.65 531.02 401.7 539.68 413.74 549.51 425.78 559.8 437.83 569.82 449.87 578.85 461.91 586.25 473.95 591.49 486 594.19 498.04 594.17 510.08 591.42 522.12 586.14 534.17 572.45 538.58 558.43 541.39 544.15 542.68 529.71 542.56 515.22 541.24 500.75 538.96 486.39 535.98 472.24 532.61 458.36 529.18 444.83 526.03 431.7 523.49 419.03 521.86 406.84 521.43 395.18 522.44 384.05 525.09 373.46 529.52 358.51 523.66 344.45 522.6 331.21 527.28 318.05 533.65 304.39 539.55 290.11 543.32 274.39 541.06 257.65 534.25 260.04 522.2 261.29 510.16 261.3 498.11 260.08 486.07 257.7 474.03 254.35 461.98 250.25 449.94 245.71 437.89 241.05 425.85 236.59 413.81 232.66 401.76 229.54 389.72 227.46 377.67 226.55 365.63 226.89 353.58 228.45 341.54 238.86 334.52 249.65 326.44 260.8 317.42 272.31 307.59 284.16 297.14 296.32 286.26 308.76 275.15 321.44 264.03 334.31 253.08 347.3 242.5 360.36 232.47 373.42 223.12 386.41 214.58 399.26 206.93 418.08 197.35 424.26 194.47" stroke-dasharray="0 1" transform="rotate(56, 400, 400)" opacity="0.51"></path><path d="M418.42 207.36Q425.02 212.55 431.25 218.59 437.14 225.46 442.74 233.14 448.09 241.56 453.24 250.64 458.25 260.28 463.19 270.34 468.11 280.68 473.1 291.14 478.21 301.56 483.52 311.76 489.1 321.59 495.01 330.88 501.31 339.5 508.07 347.31 506.35 358.39 506.92 369.47 509.75 380.55 514.67 391.63 521.37 402.71 529.45 413.79 538.42 424.88 547.72 435.96 556.8 447.04 565.1 458.12 572.11 469.2 577.42 480.28 580.68 491.36 581.71 502.44 580.45 513.52 576.96 524.6 564.96 526.98 552.58 528.1 539.9 528.07 526.99 527.03 513.91 525.16 500.74 522.68 487.55 519.8 474.41 516.79 461.38 513.9 448.52 511.39 435.89 509.5 423.55 508.47 411.53 508.51 399.88 509.8 380.05 512.56 365.38 510.16 353.54 509.68 341.77 512.29 329.6 517.85 316.9 523.66 302.98 527.45 288.18 528.71 276.94 520.63 274.26 502.73 273.76 491.64 272.18 480.56 269.61 469.47 266.21 458.39 262.19 447.3 257.79 436.22 253.28 425.13 248.94 414.04 245.02 402.96 241.77 391.87 239.39 380.79 238.02 369.7 237.74 358.62 238.58 347.53 247.84 339.83 257.44 331.31 267.37 322.1 277.63 312.34 288.21 302.17 299.12 291.78 310.32 281.32 321.79 270.97 333.5 260.87 345.41 251.18 357.48 242.03 369.66 233.53 381.9 225.76 394.15 218.79 412.38 210.01 418.42 207.36" stroke-dasharray="1 3" transform="rotate(59.99999999999999, 400, 400)" opacity="0.50"></path><path d="M410.61 220.24Q421.09 230.82 431.03 243.56 435.78 251.14 440.48 259.32 445.17 268.03 449.91 277.17 454.74 286.63 459.72 296.3 464.91 306.05 470.34 315.75 476.07 325.26 482.14 334.45 488.6 343.19 495.47 351.38 495.21 361.47 496.83 371.56 500.25 381.65 505.3 391.74 511.72 401.83 519.18 411.92 527.29 422.01 535.64 432.1 543.81 442.19 551.37 452.28 557.94 462.37 563.18 472.46 566.82 482.55 568.68 492.64 562.52 508.18 545.64 513.5 534.58 512.57 523.25 510.97 511.7 508.86 499.97 506.41 488.13 503.82 476.23 501.26 464.31 498.95 452.44 497.06 440.65 495.78 428.99 495.29 417.51 495.72 406.25 497.21 387.24 499.95 374.03 497.54 355.37 498.11 341.41 502.23 329.04 507.32 315.89 511.88 294.15 508.53 286.96 493.13 286 483.03 284.11 472.93 281.4 462.83 278.01 452.74 274.09 442.64 269.87 432.54 265.55 422.44 261.36 412.34 257.5 402.25 254.18 392.15 251.57 382.05 249.8 371.95 248.96 361.85 249.1 351.75 257.24 343.66 265.66 334.98 274.37 325.85 283.37 316.39 292.68 306.72 302.27 296.97 312.16 287.29 322.32 277.8 332.74 268.61 343.39 259.85 354.26 251.6 365.32 243.94 376.52 236.94 387.82 230.65 404.9 222.66 410.61 220.24" stroke-dasharray="5 2" transform="rotate(64, 400, 400)" opacity="0.38"></path><path d="M401.64 233.13Q410.73 242.33 419.59 254.02 428.51 268.02 437.77 283.95 447.68 301.25 458.51 319.2 470.51 336.99 483.9 353.81 487.22 371.98 496.03 390.14 508.86 408.31 523.56 426.48 537.66 444.64 548.8 462.81 555.11 480.98 555.53 499.14 537.53 497.89 518.31 494.62 498.12 490.3 477.24 486.07 455.99 483.04 434.66 482.28 413.54 484.68 392.89 490.86 383.64 484.98 374.02 482.85 363.83 483.82 352.88 486.98 341.03 491.28 328.2 495.56 314.37 498.73 299.57 499.81 299.34 481.62 295.86 463.44 289.72 445.25 281.95 427.07 273.85 408.88 266.77 390.7 261.92 372.51 260.09 354.33 274.43 337.62 289.73 319.88 306.04 301.93 323.38 284.57 341.73 268.53 360.99 254.37 381.03 242.51 401.64 233.13 401.64 233.13 401.64 233.13" stroke-dasharray="5 4" transform="rotate(68, 400, 400)" opacity="0.70"></path><path d="M392.49 246.02Q400.74 254.22 409.13 264.5 417.86 276.76 427.14 290.75 437.16 306.08 448.11 322.26 460.12 338.71 473.31 354.81 478.02 370.96 486.82 387.1 498.5 403.25 511.48 419.39 523.98 435.54 534.3 451.69 534.62 474.74 512.03 478.22 494.91 474.5 477.04 471.28 458.61 469.36 439.82 469.47 420.9 472.2 402.05 477.97 393.43 472.46 384.25 469.97 374.38 470.06 363.72 472.13 352.23 475.43 339.88 479.17 326.68 482.54 312.69 484.77 311.38 468.6 307.42 452.44 301.36 436.27 294.03 420.1 286.42 403.94 279.56 387.77 274.4 371.61 271.63 355.44 283.86 339.4 296.84 322.97 310.64 306.76 325.32 291.35 340.88 277.24 357.31 264.83 374.54 254.39 392.49 246.02 392.49 246.02 392.49 246.02" stroke-dasharray="5 5" transform="rotate(72, 400, 400)" opacity="0.64"></path><path d="M384.16 258.9Q392.02 266.11 400.23 275.03 408.93 285.58 418.24 297.62 428.28 310.91 439.14 325.11 450.9 339.84 463.61 354.67 469.18 368.81 477.65 382.96 488.1 397.1 499.4 411.24 510.33 425.39 519.72 439.53 522.1 459.39 504.34 462.03 490.18 459.12 475.3 456.94 459.8 456.03 443.82 456.85 427.5 459.78 410.98 465.09 402.63 460.01 393.65 457.29 383.99 456.66 373.63 457.72 362.54 459.99 350.76 462.95 338.31 466.04 325.26 468.69 323.05 454.53 318.79 440.36 312.93 426.2 306.11 412.03 299.06 397.87 292.54 383.71 287.25 369.54 283.77 355.38 294.04 340.57 304.85 325.82 316.29 311.56 328.41 298.19 341.25 286.03 354.83 275.33 376.65 262.58 384.16 258.9" stroke-dasharray="4 4" transform="rotate(76, 400, 400)" opacity="0.58"></path><path d="M377.53 271.79Q385.24 278.02 393.37 285.6 402.01 294.5 411.22 304.62 421.06 315.82 431.57 327.91 442.77 340.65 454.69 353.76 460.63 365.94 468.5 378.12 477.65 390.3 487.32 402.48 496.72 414.66 505.07 426.83 508.82 443.85 495.23 446.27 483.83 444.29 471.79 443.11 459.19 443.05 446.09 444.4 432.58 447.4 418.74 452.2 410.49 447.6 401.67 444.79 392.27 443.6 382.31 443.8 371.78 445.09 360.72 447.14 349.18 449.6 337.2 452.09 334.34 439.9 329.96 427.7 324.43 415.5 318.19 403.31 311.77 391.11 305.71 378.91 300.49 366.71 296.55 354.51 305.01 341.39 313.84 328.61 323.11 316.45 332.87 305.15 343.17 294.91 354.03 285.88 371.51 274.98 377.53 271.79" stroke-dasharray="5 0" transform="rotate(80, 400, 400)" opacity="0.81"></path><path d="M373.33 284.68Q380.88 289.95 388.84 296.24 397.23 303.54 406.08 311.8 415.43 320.95 425.26 330.87 435.61 341.44 446.45 352.49 452.28 362.76 459.32 373.03 467.14 383.3 475.24 393.57 483.15 403.84 490.38 414.1 485.34 429.33 466.42 429.81 456.54 430.43 446.23 432.14 435.52 435.07 424.47 439.31 416.39 435.24 407.87 432.46 398.92 430.9 389.55 430.41 379.79 430.82 369.67 431.95 352.23 429.42 340.93 414.96 335.84 404.67 330.27 394.39 324.56 384.11 319.06 373.82 314.11 363.54 309.99 353.25 316.82 342.16 323.87 331.53 331.21 321.52 338.85 312.28 346.86 303.91 355.26 296.49 368.7 287.38 373.33 284.68" stroke-dasharray="6 4" transform="rotate(84, 400, 400)" opacity="0.19"></path><path d="M372 297.56Q386.72 306.95 402.73 319.23 420.07 334.18 438.72 351.32 450.11 368.16 463.16 385.01 474.37 409.37 459.2 417.07 444 420.06 427.55 426.43 411.97 420.32 395.25 417.57 377.56 417.58 359.09 419.52 351.7 402.65 342.35 385.78 332.6 368.91 324.09 352.04 334.94 334.77 346.4 319.65 365.35 302.36 372 297.56" stroke-dasharray="2 3" transform="rotate(88, 400, 400)" opacity="0.34"></path><path d="M373.69 310.45Q386.92 317.76 400.96 326.98 415.8 338.03 431.38 350.73 440.84 364 451.08 377.28 460.63 397.07 450.24 404.9 439.37 408.13 427.67 413.54 413.82 408.34 399.36 405.3 384.38 404.16 369.02 404.54 362.28 391.25 354.43 377.95 346.31 364.66 338.81 351.36 347.01 338.53 355.48 327.32 369.01 314.19 373.69 310.45" stroke-dasharray="4 2" transform="rotate(92, 400, 400)" opacity="0.65"></path><path d="M378.22 323.34Q389.14 328.65 400.47 335.07 412.19 342.59 424.26 351.14 431.49 360.97 439 370.8 439.49 391.19 424.8 400.65 413.51 396.52 401.95 393.61 390.2 391.83 378.29 391.03 372.66 381.19 366.51 371.34 360.2 361.5 354.12 351.66 359.99 342.99 365.92 335.34 375.1 326.06 378.22 323.34" stroke-dasharray="1 2" transform="rotate(96, 400, 400)" opacity="0.80"></path><path d="M385.1 336.22Q400.88 343.58 417.21 352.95 427.52 374.13 419.26 387.77 403.2 382.51 386.95 379.31 378.59 366.32 369.95 353.32 381.3 339.99 385.1 336.22" stroke-dasharray="5 2" transform="rotate(100, 400, 400)" opacity="0.67"></path></g></svg>